//  ***** gm - Harp *****
//  Soundfont converted using sfZed
//  SoundFont version 2.1
//  E-mu 10K1
//  Using Virtual Sampler


<group>
loop_mode=no_loop
ampeg_attack=0
ampeg_sustain=1
ampeg_release=.25

<region>
sample=AcousticGuitar_01_40.wav
hikey=41
pitch_keycenter=40

<region>
sample=AcousticGuitar_01_43.wav
lokey=42
hikey=44
pitch_keycenter=43

<region>
sample=AcousticGuitar_01_46.wav
lokey=45
hikey=47
pitch_keycenter=46

<region>
sample=AcousticGuitar_01_49.wav
lokey=48
hikey=50
pitch_keycenter=49

<region>
sample=AcousticGuitar_01_52.wav
lokey=51
hikey=53
pitch_keycenter=52

<region>
sample=AcousticGuitar_01_55.wav
lokey=54
hikey=56
pitch_keycenter=55

<region>
sample=AcousticGuitar_01_58.wav
lokey=57
hikey=59
pitch_keycenter=58

<region>
sample=AcousticGuitar_01_61.wav
lokey=60
hikey=62
pitch_keycenter=61

<region>
sample=AcousticGuitar_01_64.wav
lokey=65
hikey=66
pitch_keycenter=64

<region>
sample=AcousticGuitar_01_67.wav
lokey=66
hikey=68
pitch_keycenter=67

<region>
sample=AcousticGuitar_01_70.wav
lokey=69
hikey=71
pitch_keycenter=70

<region>
sample=AcousticGuitar_01_73.wav
lokey=72
hikey=74
pitch_keycenter=73

<region>
sample=AcousticGuitar_01_76.wav
lokey=75
hikey=77
pitch_keycenter=76

<region>
sample=AcousticGuitar_01_79.wav
lokey=78
hikey=80
pitch_keycenter=79

<region>
sample=AcousticGuitar_01_82.wav
lokey=81
pitch_keycenter=82
